<svg xmlns="http://www.w3.org/2000/svg" width="128" height="128" viewBox="0 0 128 128" role="img" aria-label="Unwanted Tools logo">
  <defs>
    <linearGradient id="g" x1="0" x2="1" y1="0" y2="1">
      <stop offset="0%" stop-color="#60a5fa" />
      <stop offset="100%" stop-color="#3b82f6" />
    </linearGradient>
    <filter id="f" x="-20%" y="-20%" width="140%" height="140%">
      <feDropShadow dx="0" dy="6" stdDeviation="10" flood-opacity="0.12" flood-color="#0b1220"/>
    </filter>
  </defs>
  <rect width="96" height="96" x="16" y="16" rx="18" fill="black" />
  <rect width="96" height="96" x="16" y="16" rx="18" fill="url(#g)" opacity="0.14" />
  <g transform="translate(24,28)" filter="url(#f)">
    <path d="M8 72 L8 24 L36 24 C46 24 54 31 54 42 C54 53 46 60 36 60 L20 60 L20 72 Z" fill="#ffffff" />
    <path d="M64 72 L64 24 L92 24 L92 36 L76 36 L76 48 L92 48 L92 60 L76 60 L76 72 Z" fill="#ffffff" opacity="0.95" transform="translate(-40,0)"/>
  </g>
  <circle cx="24" cy="24" r="2" fill="#3b82f6" opacity="0.7" />
</svg>